<?xml version="1.0" encoding="UTF-8" standalone="no"?>
<svg xmlns="http://www.w3.org/2000/svg" width="1600" height="1600" viewBox="0 0 1600 1600">
    <defs>
        <style>
            @font-face {
            font-family: -apple-system; src: local(".SFNSText");
            }
            .title {
            font: 700 200px -apple-system,system-ui,Segoe UI,Roboto,Ubuntu,Cantarell,"Helvetica Neue",Arial,sans-serif;
            fill: #e95400;
            letter-spacing: 2px;
            text-transform: uppercase;
            }
            .subtitle {
            font: 500 60px -apple-system,system-ui,Segoe UI,Roboto,Ubuntu,Cantarell,"Helvetica Neue",Arial,sans-serif;
            fill: #c9d1d9;
            }
        </style>
    </defs>
    <rect x="0" y="0" width="1600" height="1600" fill="#0d1117"/>
    <g transform="translate(150,600)">
        <g transform="scale(18)">
            <path fill="#c9d1d9"
                  d="M11.742 10.344a6.5 6.5 0 1 0-1.397 1.398h-.001q.044.06.098.115l3.85 3.85a1 1 0 0 0 1.415-1.414l-3.85-3.85a1 1 0 0 0-.115-.1zM12 6.5a5.5 5.5 0 1 1-11 0 5.5 5.5 0 0 1 11 0"/>
        </g>
        <g transform="translate(340,150)">
            <text class="title" x="0" y="0">REFLECTO</text>
            <text class="subtitle" x="0" y="110">Java Reflection Utility</text>
        </g>
    </g>
</svg>
