<?xml version="1.0" encoding="UTF-8" standalone="no"?>
<svg xmlns="http://www.w3.org/2000/svg" width="1600" height="1600" viewBox="0 0 1600 1600">
    <defs>
        <style>
            @font-face {
            font-family: -apple-system; src: local(".SFNSText");
            }
            .title {
            font: 700 120px -apple-system,system-ui,Segoe UI,Roboto,Ubuntu,Cantarell,"Helvetica Neue",Arial,sans-serif;
            fill: #e95400;
            letter-spacing: 2px;
            text-transform: uppercase;
            }
            .subtitle {
            font: 500 60px -apple-system,system-ui,Segoe UI,Roboto,Ubuntu,Cantarell,"Helvetica Neue",Arial,sans-serif;
            fill: #c9d1d9;
            }
        </style>
    </defs>
    <rect x="0" y="0" width="1600" height="1600" fill="#0d1117"/>
    <g transform="translate(90,600)">
        <g transform="scale(27)">
            <path fill="#c9d1d9"
                  d="M1.5 1.5A.5.5 0 0 1 2 1h12a.5.5 0 0 1 .5.5v2a.5.5 0 0 1-.128.334L10 8.692V13.5a.5.5 0 0 1-.342.474l-3 1A.5.5 0 0 1 6 14.5V8.692L1.628 3.834A.5.5 0 0 1 1.5 3.5zm1 .5v1.308l4.372 4.858A.5.5 0 0 1 7 8.5v5.306l2-.666V8.5a.5.5 0 0 1 .128-.334L13.5 3.308V2z"/>
        </g>
        <g transform="translate(450,70)">
            <text class="title" x="0" y="0">
                <tspan x="0" dy="0">SPRING DATA</tspan>
                <tspan x="0" dy="130">WEB SPEC</tspan>
            </text>
            <text class="subtitle" x="0" y="220">
                <tspan x="0" dy="0">Annotation-driven mapping</tspan>
                <tspan x="0" dy="70"> from web requests</tspan>
                <tspan x="0" dy="70">to Spring Data JPA Specifications</tspan>
            </text>
        </g>
    </g>
</svg>
