<?xml version="1.0" encoding="UTF-8" standalone="no"?>
<svg xmlns="http://www.w3.org/2000/svg" width="1200" height="630" viewBox="0 0 1200 630">
    <defs>
        <style>
            @font-face {
            font-family: -apple-system; src: local(".SFNSText");
            }
            .title {
            font: 700 130px -apple-system,system-ui,Segoe UI,Roboto,Ubuntu,Cantarell,"Helvetica Neue",Arial,sans-serif;
            fill: #e95400;
            letter-spacing: 2px;
            text-transform: uppercase;
            }
            .subtitle {
            font: 500 36px -apple-system,system-ui,Segoe UI,Roboto,Ubuntu,Cantarell,"Helvetica Neue",Arial,sans-serif;
            fill: #c9d1d9;
            }
        </style>
    </defs>
    <rect x="0" y="0" width="1200" height="630" fill="#0d1117"/>
    <g transform="translate(130,180)">
        <g transform="scale(15)">
            <path fill="#c9d1d9" fill-rule="evenodd"
                  d="M.5 6a.5.5 0 0 0-.488.608l1.652 7.434A2.5 2.5 0 0 0 4.104 16h5.792a2.5 2.5 0 0 0 2.44-1.958l.131-.59a3 3 0 0 0 1.3-5.854l.221-.99A.5.5 0 0 0 13.5 6zM13 12.5a2 2 0 0 1-.316-.025l.867-3.898A2.001 2.001 0 0 1 13 12.5"/>
            <path fill="#c9d1d9" d="m4.4.8-.003.004-.014.019a4 4 0 0 0-.204.31 2 2 0 0 0-.141.267c-.026.06-.034.092-.037.103v.004a.6.6 0 0 0 .091.248c.075.133.178.272.308.445l.01.012c.118.158.26.347.37.543.112.2.22.455.22.745 0 .188-.065.368-.119.494a3 3 0 0 1-.202.388 5 5 0 0 1-.253.382l-.018.025-.005.008-.002.002A.5.5 0 0 1 3.6 4.2l.003-.004.014-.019a4 4 0 0 0 .204-.31 2 2 0 0 0 .141-.267c.026-.06.034-.092.037-.103a.6.6 0 0 0-.09-.252A4 4 0 0 0 3.6 2.8l-.01-.012a5 5 0 0 1-.37-.543A1.53 1.53 0 0 1 3 1.5c0-.188.065-.368.119-.494.059-.138.134-.274.202-.388a6 6 0 0 1 .253-.382l.025-.035A.5.5 0 0 1 4.4.8m3 0-.003.004-.014.019a4 4 0 0 0-.204.31 2 2 0 0 0-.141.267c-.026.06-.034.092-.037.103v.004a.6.6 0 0 0 .091.248c.075.133.178.272.308.445l.01.012c.118.158.26.347.37.543.112.2.22.455.22.745 0 .188-.065.368-.119.494a3 3 0 0 1-.202.388 5 5 0 0 1-.253.382l-.018.025-.005.008-.002.002A.5.5 0 0 1 6.6 4.2l.003-.004.014-.019a4 4 0 0 0 .204-.31 2 2 0 0 0 .141-.267c.026-.06.034-.092.037-.103a.6.6 0 0 0-.09-.252A4 4 0 0 0 6.6 2.8l-.01-.012a5 5 0 0 1-.37-.543A1.53 1.53 0 0 1 6 1.5c0-.188.065-.368.119-.494.059-.138.134-.274.202-.388a6 6 0 0 1 .253-.382l.025-.035A.5.5 0 0 1 7.4.8m3 0-.003.004-.014.019a4 4 0 0 0-.204.31 2 2 0 0 0-.141.267c-.026.06-.034.092-.037.103v.004a.6.6 0 0 0 .091.248c.075.133.178.272.308.445l.01.012c.118.158.26.347.37.543.112.2.22.455.22.745 0 .188-.065.368-.119.494a3 3 0 0 1-.202.388 5 5 0 0 1-.252.382l-.019.025-.005.008-.002.002A.5.5 0 0 1 9.6 4.2l.003-.004.014-.019a4 4 0 0 0 .204-.31 2 2 0 0 0 .141-.267c.026-.06.034-.092.037-.103a.6.6 0 0 0-.09-.252A4 4 0 0 0 9.6 2.8l-.01-.012a5 5 0 0 1-.37-.543A1.53 1.53 0 0 1 9 1.5c0-.188.065-.368.119-.494.059-.138.134-.274.202-.388a6 6 0 0 1 .253-.382l.025-.035A.5.5 0 0 1 10.4.8"/>
        </g>
        <g transform="translate(280,110)">
            <text class="title" x="0" y="0">EXPRESSO</text>
            <text class="subtitle" x="0" y="70">
                <tspan x="0" dy="0">Extended Regular Expressions</tspan>
                <tspan x="0" dy="50">with Object-Oriented Patterns</tspan>
            </text>
        </g>
    </g>
</svg>
