<?xml version="1.0" encoding="UTF-8" standalone="no"?>
<svg xmlns="http://www.w3.org/2000/svg" width="1200" height="630" viewBox="0 0 1200 630">
    <defs>
        <style>
            @font-face {
            font-family: -apple-system; src: local(".SFNSText");
            }
            .title {
            font: 700 130px -apple-system,system-ui,Segoe UI,Roboto,Ubuntu,Cantarell,"Helvetica Neue",Arial,sans-serif;
            fill: #e95400;
            letter-spacing: 2px;
            text-transform: uppercase;
            }
            .subtitle {
            font: 500 36px -apple-system,system-ui,Segoe UI,Roboto,Ubuntu,Cantarell,"Helvetica Neue",Arial,sans-serif;
            fill: #c9d1d9;
            }
        </style>
    </defs>
    <rect x="0" y="0" width="1200" height="630" fill="#0d1117"/>
    <g transform="translate(170,180)">
        <g transform="scale(13)">
            <path fill="#c9d1d9"
                  d="M13 1a2 2 0 0 1 2 2v10a2 2 0 0 1-2 2H3a2 2 0 0 1-2-2V3a2 2 0 0 1 2-2zM3 0a3 3 0 0 0-3 3v10a3 3 0 0 0 3 3h10a3 3 0 0 0 3-3V3a3 3 0 0 0-3-3z"/>
            <path fill="#c9d1d9"
                  d="M5.5 4a1.5 1.5 0 1 1-3 0 1.5 1.5 0 0 1 3 0m8 0a1.5 1.5 0 1 1-3 0 1.5 1.5 0 0 1 3 0m0 8a1.5 1.5 0 1 1-3 0 1.5 1.5 0 0 1 3 0m-8 0a1.5 1.5 0 1 1-3 0 1.5 1.5 0 0 1 3 0m4-4a1.5 1.5 0 1 1-3 0 1.5 1.5 0 0 1 3 0"/>
        </g>
        <g transform="translate(250,120)">
            <text class="title" x="0" y="0">OBJECTO</text>
            <text class="subtitle" x="0" y="60">Random Object Generator for Tests</text>
        </g>
    </g>
</svg>
