<?xml version="1.0" encoding="UTF-8" standalone="no"?>
<svg xmlns="http://www.w3.org/2000/svg" width="1200" height="630" viewBox="0 0 1200 630">
    <defs>
        <style>
            @font-face {
            font-family: -apple-system; src: local(".SFNSText");
            }
            .title {
            font: 700 130px -apple-system,system-ui,Segoe UI,Roboto,Ubuntu,Cantarell,"Helvetica Neue",Arial,sans-serif;
            fill: #e95400;
            letter-spacing: 2px;
            text-transform: uppercase;
            }
            .subtitle {
            font: 500 36px -apple-system,system-ui,Segoe UI,Roboto,Ubuntu,Cantarell,"Helvetica Neue",Arial,sans-serif;
            fill: #c9d1d9;
            }
        </style>
    </defs>
    <rect x="0" y="0" width="1200" height="639" fill="#0d1117"/>
    <g transform="translate(140,180)">
        <g transform="scale(15)">
            <path fill="#c9d1d9" d="M6.79 5.093A.5.5 0 0 0 6 5.5v5a.5.5 0 0 0 .79.407l3.5-2.5a.5.5 0 0 0 0-.814z"/>
            <path fill="#c9d1d9" d="M0 4a2 2 0 0 1 2-2h12a2 2 0 0 1 2 2v8a2 2 0 0 1-2 2H2a2 2 0 0 1-2-2zm15 0a1 1 0 0 0-1-1H2a1 1 0 0 0-1 1v8a1 1 0 0 0 1 1h12a1 1 0 0 0 1-1z"/>
        </g>
        <g transform="translate(270,140)">
            <text class="title" x="0" y="0">RECORDO</text>

            <text class="subtitle" x="0" y="60">JUnit 5 Extension for Recorded Fixtures</text>
        </g>
    </g>
</svg>
